HIERARCHY
ROOT Hips
{
	OFFSET 0.000000 0.000000 0.000000 
	CHANNELS 6 Xposition Yposition Zposition Zrotation Yrotation Xrotation
	JOINT LeftUpLeg
	{
		OFFSET 1.363060 -1.794630 0.839290 
		CHANNELS 3 Zrotation Yrotation Xrotation
		JOINT LeftLeg
		{
			OFFSET 2.448110 -6.726130 0.000000 
			CHANNELS 3 Zrotation Yrotation Xrotation
			JOINT LeftFoot
			{
				OFFSET 2.562200 -7.039590 0.000000 
				CHANNELS 3 Zrotation Yrotation Xrotation
				JOINT LeftToeBase
				{
					OFFSET 0.157640 -0.433110 2.322550 
					CHANNELS 3 Zrotation Yrotation Xrotation
					End Site
					{
						OFFSET 0.000000 0.000000 0.000000 
					}
				}
			}
		}
	}
	JOINT RightUpLeg
	{
		OFFSET -1.305520 -1.794630 0.839290 
		CHANNELS 3 Zrotation Yrotation Xrotation
		JOINT RightLeg
		{
			OFFSET -2.542530 -6.985550 0.000000 
			CHANNELS 3 Zrotation Yrotation Xrotation
			JOINT RightFoot
			{
				OFFSET -2.568260 -7.056230 0.000000 
				CHANNELS 3 Zrotation Yrotation Xrotation
				JOINT RightToeBase
				{
					OFFSET -0.164730 -0.452590 2.363150 
					CHANNELS 3 Zrotation Yrotation Xrotation
					End Site
					{
						OFFSET 0.000000 0.000000 0.000000 
					}
				}
			}
		}
	}
	JOINT Spine
	{
		OFFSET 0.028270 2.035590 -0.193380 
		CHANNELS 3 Zrotation Yrotation Xrotation
		JOINT Spine1
		{
			OFFSET 0.056720 2.048850 -0.042750 
			CHANNELS 3 Zrotation Yrotation Xrotation
			JOINT Neck1
			{
				OFFSET -0.054170 1.746240 0.172020 
				CHANNELS 3 Zrotation Yrotation Xrotation
				JOINT Head
				{
					OFFSET 0.104070 1.761360 -0.123970 
					CHANNELS 3 Zrotation Yrotation Xrotation
					End Site
					{
						OFFSET 0.000000 0.000000 0.000000 
					}
				}
			}
			JOINT LeftArm
			{
				OFFSET 3.362410 1.200890 -0.311210 
				CHANNELS 3 Zrotation Yrotation Xrotation
				JOINT LeftForeArm
				{
					OFFSET 4.983000 -0.000000 -0.000000 
					CHANNELS 3 Zrotation Yrotation Xrotation
					JOINT LeftHand
					{
						OFFSET 3.483560 -0.000000 -0.000000 
						CHANNELS 3 Zrotation Yrotation Xrotation
						JOINT LeftHandIndex1
						{
							OFFSET 0.715260 -0.000000 -0.000000 
							CHANNELS 3 Zrotation Yrotation Xrotation
							End Site
							{
								OFFSET 0.000000 0.000000 0.000000 
							}
						}
					}
				}
			}
			JOINT RightArm
			{
				OFFSET -3.136600 1.374050 -0.404650 
				CHANNELS 3 Zrotation Yrotation Xrotation
				JOINT RightForeArm
				{
					OFFSET -5.241900 -0.000000 -0.000000 
					CHANNELS 3 Zrotation Yrotation Xrotation
					JOINT RightHand
					{
						OFFSET -3.444170 -0.000000 -0.000000 
						CHANNELS 3 Zrotation Yrotation Xrotation
						JOINT RightHandIndex1
						{
							OFFSET -0.622530 -0.000000 -0.000000 
							CHANNELS 3 Zrotation Yrotation Xrotation
							End Site
							{
								OFFSET 0.000000 0.000000 0.000000 
							}
						}
					}
				}
			}
		}
	}
}
MOTION
Frames: 7
Frame Time: 0.041667
1.958643 16.385782 12.768131 0.382150 -80.914047 91.854257 -18.228824 12.160589 -50.534721 8.563245 17.168174 45.378774 1.842164 16.535101 49.239194 0.001700 0.262800 0.722100 15.882022 9.744539 -45.789876 -4.855173 -18.645143 41.601261 -4.210664 -15.334869 51.047632 -3.938500 -12.078100 36.008900 -3.765161 17.484677 -6.773076 -22.374003 4.550887 -3.541024 0.972910 -12.289766 -11.265787 -4.186100 -8.030200 -8.321200 41.965179 -59.096360 -31.231264 60.090580 -50.346620 -32.367471 -0.149270 -0.248973 -60.005539 -7.125000 0.000000 0.000000 21.319146 16.107858 4.308579 -34.549926 38.410271 -20.670802 1.513867 2.257738 -35.414664 7.125000 0.000000 0.000000 
1.933711 16.357929 12.772848 -0.004687 -80.914199 92.105360 -17.690907 11.840061 -50.074397 7.948277 16.829467 43.560428 1.940643 16.830490 49.632558 0.000100 0.066800 0.183700 15.658507 9.683345 -45.262954 -4.121329 -18.054130 39.476936 -4.340703 -15.755515 51.412005 -3.939400 -12.079300 36.012900 -3.806294 17.327476 -6.861338 -22.417300 4.251770 -4.280424 0.953028 -12.129922 -11.586314 -4.261400 -8.018800 -8.783900 39.256954 -59.874403 -25.771530 63.926235 -51.177548 -35.433605 -0.079067 -0.180785 -61.378693 -7.125000 0.000000 0.000000 25.399224 16.638342 7.477980 -38.158991 40.811880 -22.958603 1.368208 1.778170 -34.957370 7.125000 0.000000 0.000000 
1.908667 16.327943 12.776891 -0.197237 -80.925906 92.176089 -17.115918 11.501724 -49.587937 7.348646 16.481612 41.747129 2.021995 17.232286 49.997703 0.000200 -0.098600 -0.270900 15.428091 9.588012 -44.727274 -3.392314 -17.422444 37.348427 -4.465962 -16.129695 51.742658 -3.933900 -12.071900 35.986800 -3.832584 17.240919 -6.935775 -22.335061 4.042000 -4.900977 0.892270 -12.035646 -11.857528 -4.387200 -8.049100 -9.293500 37.769106 -60.749181 -21.469417 67.412143 -51.871039 -38.200945 -0.024016 -0.117192 -63.065524 -7.125000 0.000000 0.000000 29.496483 16.760040 10.774651 -41.744013 43.055864 -25.299637 1.236154 1.360218 -34.303743 7.125000 0.000000 0.000000 
1.883847 16.296272 12.779924 -0.257796 -80.965318 92.125290 -16.540461 11.169364 -49.098669 6.778901 16.131943 39.980548 2.069717 17.748134 50.294343 0.001300 -0.230700 -0.633800 15.179665 9.465404 -44.185579 -2.684346 -16.760907 35.242822 -4.580902 -16.482857 52.034316 -3.928100 -12.064100 35.959000 -3.845597 17.210614 -6.997527 -22.130607 3.917636 -5.411524 0.795328 -12.001110 -12.079276 -4.555900 -8.114500 -9.844900 37.431690 -61.665717 -18.223294 70.691671 -52.471356 -40.768774 0.016293 -0.062268 -65.243837 -7.125000 0.000000 0.000000 33.556664 16.496467 14.127391 -45.190899 45.103371 -27.579219 1.120636 0.995835 -33.486932 7.125000 0.000000 0.000000 
1.859139 16.263254 12.782282 -0.187085 -81.015408 91.947930 -15.977422 10.859569 -48.622746 6.243656 15.785515 38.296024 2.089042 18.315880 50.520877 0.003300 -0.371100 -1.019700 14.938211 9.314019 -43.643787 -2.008174 -16.078636 33.186026 -4.686687 -16.814006 52.294402 -3.913500 -12.044400 35.889300 -3.845546 17.208690 -7.048331 -21.837283 3.870824 -5.786629 0.672814 -12.010556 -12.252337 -4.753100 -8.202400 -10.420400 38.527498 -62.461969 -16.331643 73.845397 -53.014163 -43.207843 0.041186 -0.025016 -67.974051 -7.125000 0.000000 0.000000 37.528332 15.904477 17.479407 -48.412124 46.937397 -29.693992 1.019293 0.675409 -32.626548 7.125000 0.000000 0.000000 
1.834094 16.230011 12.783630 0.025258 -81.080376 91.621885 -15.453821 10.594945 -48.171335 5.749334 15.447244 36.724726 2.079146 18.900479 50.669729 0.007100 -0.543900 -1.494500 14.704297 9.134750 -43.096694 -1.374918 -15.386750 31.202184 -4.784635 -17.126638 52.532808 -3.889700 -12.012100 35.774800 -3.831707 17.212775 -7.090224 -21.477594 3.928777 -5.931726 0.533919 -12.038247 -12.370169 -4.962900 -8.293400 -10.982400 42.503500 -63.025576 -17.347615 76.479807 -53.561957 -45.152157 0.043441 -0.007561 -71.312331 -7.125000 0.000000 0.000000 41.386342 15.086240 20.770245 -51.298641 48.538110 -31.518511 0.932998 0.389930 -31.848956 7.125000 0.000000 0.000000 
1.808151 16.196656 12.783967 0.335741 -81.140513 91.182030 -14.989244 10.406297 -47.756118 5.297605 15.118398 35.292604 2.059879 19.423788 50.773918 0.015300 -0.798100 -2.193300 14.494917 8.932290 -42.543282 -0.790865 -14.696916 29.317234 -4.880072 -17.400668 52.763063 -3.845200 -11.951500 35.560700 -3.804038 17.148110 -7.124296 -21.187497 3.983460 -6.015868 0.397074 -12.009570 -12.430303 -5.165300 -8.343700 -11.423800 47.322127 -64.375959 -19.013109 77.763508 -53.975804 -45.794879 0.013613 0.032730 -74.217056 -7.125000 0.000000 0.000000 45.140889 14.240740 23.960650 -53.745701 49.894661 -32.929198 0.862335 0.130472 -31.296850 7.125000 0.000000 0.000000 
